<svg width="349" height="383" fill="none" xmlns="http://www.w3.org/2000/svg"><g clip-path="url(#a)"><path d="M172.07 381c-.88 0-1.65-.57-1.91-1.41-.09-.29-2.24-7.2-3.36-11.56-.52-2.02-1.06-4.53-1.62-7.48l-52.27 11.64a1.986 1.986 0 0 1-1.68-.39c-.47-.38-.75-.95-.75-1.56v-10.21c0-.12.01-.25.03-.37.47-2.47 1.29-3.82 3.41-5.55.07-.06.15-.11.22-.16l41.6-25.49c.55-.41 1.5-1.17 1.92-1.65.33-.37.74-.99 1.06-1.52-.73-4.09-1.32-7.65-1.75-10.61-1.86-12.57-3.54-31.81-3.56-32v-86.94h-23.4c-.04.4-.07.79-.11 1.14-.12 1.06-.43 2.61-.44 2.67-.49 2.18-1.43 3.27-2.79 3.27s-2.31-1.09-2.79-3.23c-.02-.11-.33-1.66-.45-2.71-.04-.35-.08-.74-.11-1.14h-1.95c-.12.69-.23 1.27-.24 1.31-.49 2.18-1.43 3.27-2.79 3.27s-2.31-1.09-2.79-3.23c-.01-.06-.13-.66-.25-1.35h-3.35l-16.39 4.72c-.07.9-.15 1.86-.24 2.67-.12 1.06-.43 2.61-.44 2.67-.49 2.19-1.43 3.27-2.79 3.27s-2.31-1.09-2.79-3.23c-.02-.11-.33-1.66-.45-2.71-.03-.23-.05-.46-.07-.71l-29.41 8.48c-.08 1.11-.18 2.44-.3 3.49-.12 1.06-.43 2.6-.44 2.67-.49 2.19-1.43 3.27-2.79 3.27s-2.31-1.09-2.79-3.23c-.02-.11-.33-1.66-.45-2.71-.05-.46-.1-.97-.15-1.49l-44.83 13-.14 2.35c-.02.35-.13.69-.33.98-.46.7-1.16 1.1-1.92 1.1s-1.46-.4-1.92-1.1c-.22-.33-.33-.71-.33-1.1v-3.55c0-.11-.23-4.97.46-8.14.77-3.5 1.41-5.83 3.72-8.73 1.23-1.54 3.42-3.26 3.67-3.46.1-.08.21-.15.32-.2l97.94-50c-.83-.12-1.52-.75-1.68-1.6-.06-.32-1.53-7.88-1.91-12.94l-.03-.37c-.38-5.06-.61-8.12.04-13.36l.07-.56c.24-1.97.41-3.39 1.03-5.58.3-1.05.85-2.58.88-2.64.29-.79 1.04-1.31 1.88-1.31h17.71c.78 0 1.49.45 1.82 1.16.03.06.74 1.6 1.11 2.68.76 2.16.96 3.57 1.24 5.53 0 0 .13.91.15 1.03.25.19.45.43.6.72.15.3.89 1.89.83 3.46-.04 1.1-.56 2.77-.72 3.26-.09.26-.22.5-.4.7-.04.85-.1 1.72-.17 2.62-.06.82-.12 1.69-.17 2.63-.06.95-.15 2.07-.27 3.34l18.6-9.5c.6-.54 1.82-1.71 2.38-2.56.46-.69.93-1.88 1.34-3.37v-53.6c-.08-1.21-.92-14.95.01-24.02.46-4.5.84-7.02 1.7-11.24 1.06-5.24 1.76-8.28 3.61-13.6 1.64-4.73 4.9-11.48 5.27-12.24.38-.93 2.82-6.64 6.35-8.98 1.08-.72 1.99-1.17 3.14-1.55l.21-.06c.22-.05.51-.1.85-.1.28 0 .55.03.87.11.06.01.12.03.18.05 1.14.38 2.05.83 3.14 1.55 3.53 2.34 5.97 8.05 6.35 8.98.37.76 3.62 7.52 5.27 12.24 1.85 5.31 2.55 8.36 3.61 13.6.86 4.22 1.24 6.74 1.7 11.24.93 9.07.09 22.82.01 24.02v53.6c.4 1.48.88 2.67 1.34 3.37.56.85 1.78 2.02 2.38 2.56l18.6 9.5c-.12-1.27-.21-2.38-.27-3.34-.05-.95-.11-1.82-.17-2.64-.06-.9-.12-1.77-.17-2.62-.17-.2-.31-.43-.4-.7-.11-.35-.68-2.12-.72-3.26-.06-1.58.68-3.16.83-3.46a2 2 0 0 1 .6-.72c.02-.12.15-1.03.15-1.03.28-1.96.49-3.37 1.24-5.53.38-1.08 1.08-2.61 1.11-2.67.33-.71 1.04-1.17 1.82-1.17h17.71c.84 0 1.59.52 1.88 1.31.02.06.58 1.59.88 2.64.62 2.19.79 3.61 1.03 5.57l.07.57c.64 5.24.42 8.29.04 13.35l-.03.38c-.38 5.06-1.84 12.62-1.91 12.94-.17.85-.85 1.48-1.68 1.6l97.94 50c.11.06.22.12.32.2.25.19 2.44 1.92 3.67 3.46 2.32 2.91 2.95 5.24 3.72 8.73.7 3.17.47 8.03.46 8.24v3.45c0 .39-.11.77-.33 1.1-.46.7-1.16 1.1-1.92 1.1s-1.46-.4-1.92-1.1c-.19-.29-.31-.63-.33-.98l-.14-2.35-44.83-13c-.04.52-.09 1.03-.14 1.49-.12 1.06-.43 2.61-.44 2.67-.49 2.19-1.43 3.27-2.79 3.27s-2.3-1.09-2.79-3.23c-.02-.11-.33-1.66-.45-2.71-.12-1.03-.22-2.32-.3-3.49l-29.41-8.48c-.02.25-.05.49-.07.71-.12 1.06-.43 2.61-.44 2.67-.49 2.18-1.42 3.27-2.79 3.27s-2.31-1.09-2.79-3.23c-.02-.11-.33-1.66-.45-2.71-.09-.81-.17-1.78-.24-2.67l-16.39-4.72h-3.35c-.12.69-.23 1.27-.24 1.31-.49 2.19-1.43 3.27-2.79 3.27s-2.3-1.09-2.79-3.23c-.01-.06-.13-.66-.25-1.35h-1.95c-.04.4-.08.79-.12 1.14-.12 1.06-.43 2.6-.44 2.67-.49 2.19-1.43 3.27-2.79 3.27s-2.3-1.09-2.79-3.23c-.02-.11-.33-1.66-.45-2.71-.04-.35-.08-.74-.11-1.14h-23.4v86.94c-.02.19-1.69 19.43-3.56 32-.44 2.93-1.03 6.5-1.75 10.61.29.49.7 1.12 1.05 1.52.43.47 1.38 1.24 1.93 1.65l41.6 25.49c.08.05.15.1.22.16 2.11 1.73 2.94 3.08 3.41 5.55.02.12.04.25.04.37v10.21a2.007 2.007 0 0 1-2 2c-.14 0-.29-.02-.43-.05l-52.27-11.64c-.56 2.95-1.1 5.46-1.62 7.48-1.12 4.36-3.27 11.26-3.36 11.56-.26.84-1.03 1.41-1.91 1.41h-4.92l-.06.01Z" fill="#fff" stroke="#000"/></g><defs><clipPath id="a"><path fill="#fff" transform="translate(.91)" d="M0 0h347.24v383H0z"/></clipPath></defs></svg>