<?xml version="1.0" encoding="UTF-8" standalone="no"?>
<svg
   width="349"
   height="383"
   fill="none"
   version="1.1"
   id="svg2"
   sodipodi:docname="a320.svg"
   inkscape:version="1.4 (e7c3feb100, 2024-10-09)"
   xmlns:inkscape="http://www.inkscape.org/namespaces/inkscape"
   xmlns:sodipodi="http://sodipodi.sourceforge.net/DTD/sodipodi-0.dtd"
   xmlns="http://www.w3.org/2000/svg"
   xmlns:svg="http://www.w3.org/2000/svg">
  <sodipodi:namedview
     id="namedview2"
     pagecolor="#ffffff"
     bordercolor="#000000"
     borderopacity="0.25"
     inkscape:showpageshadow="2"
     inkscape:pageopacity="0.0"
     inkscape:pagecheckerboard="0"
     inkscape:deskcolor="#d1d1d1"
     inkscape:zoom="1.1296916"
     inkscape:cx="23.015131"
     inkscape:cy="265.11661"
     inkscape:window-width="1920"
     inkscape:window-height="1008"
     inkscape:window-x="0"
     inkscape:window-y="0"
     inkscape:window-maximized="1"
     inkscape:current-layer="g1" />
  <g
     clip-path="url(#a)"
     id="g1">
    <path
       d="m 172.07,381 c -0.88,0 -1.65,-0.57 -1.91,-1.41 -0.09,-0.29 -2.24,-7.2 -3.36,-11.56 -0.52,-2.02 -1.06,-4.53 -1.62,-7.48 l -52.27,11.64 c -0.59017,0.13263 -1.20861,-0.0109 -1.68,-0.39 -0.47,-0.38 -0.75,-0.95 -0.75,-1.56 v -10.21 c 0,-0.12 0.01,-0.25 0.03,-0.37 0.47,-2.47 1.29,-3.82 3.41,-5.55 0.07,-0.06 0.15,-0.11 0.22,-0.16 l 41.6,-25.49 c 0.55,-0.41 1.5,-1.17 1.92,-1.65 0.33,-0.37 0.74,-0.99 1.06,-1.52 -0.73,-4.09 -1.32,-7.65 -1.75,-10.61 -1.86,-12.57 -3.54,-31.81 -3.56,-32 V 195.74 H 111.95 L 7.62,225.9 c -0.3049484,5.11878 -3.9339167,3.71636 -4.64,-1.32 -0.015272,-0.10893 -0.23,-4.97 0.46,-8.14 0.77,-3.5 1.41,-5.83 3.72,-8.73 1.23,-1.54 3.42,-3.26 3.67,-3.46 0.1,-0.08 0.21,-0.15 0.32,-0.2 l 97.94,-50 c -0.83,-0.12 -1.52,-0.75 -1.68,-1.6 -0.06,-0.32 -1.53,-7.88 -1.91,-12.94 l -0.03,-0.37 c -0.38,-5.06 -0.61,-8.12 0.04,-13.36 l 0.07,-0.56 c 0.24,-1.97 0.41,-3.39 1.03,-5.58 0.3,-1.05 0.85,-2.58 0.88,-2.64 0.29,-0.79 1.04,-1.31 1.88,-1.31 h 17.71 c 0.78,0 1.49,0.45 1.82,1.16 3.16576,6.25193 3.31004,13.16989 2.64,20 -0.06,0.82 -0.12,1.69 -0.17,2.63 -0.06,0.95 -0.15,2.07 -0.27,3.34 l 18.6,-9.5 c 0.6,-0.54 1.82,-1.71 2.38,-2.56 0.46,-0.69 0.93,-1.88 1.34,-3.37 v -53.6 c -0.08,-1.21 -0.92,-14.95 0.01,-24.02 0.46,-4.5 0.84,-7.02 1.7,-11.24 1.06,-5.24 1.76,-8.28 3.61,-13.6 1.64,-4.73 4.9,-11.48 5.27,-12.24 0.38,-0.93 2.82,-6.64 6.35,-8.98 1.08,-0.72 1.99,-1.17 3.14,-1.55 l 0.21,-0.06 c 0.22,-0.05 0.51,-0.1 0.85,-0.1 0.28,0 0.55,0.03 0.87,0.11 0.06,0.01 0.12,0.03 0.18,0.05 1.14,0.38 2.05,0.83 3.14,1.55 3.53,2.34 5.97,8.05 6.35,8.98 0.37,0.76 3.62,7.52 5.27,12.24 1.85,5.31 2.55,8.36 3.61,13.6 0.86,4.22 1.24,6.74 1.7,11.24 0.93,9.07 0.09,22.82 0.01,24.02 v 53.6 c 0.4,1.48 0.88,2.67 1.34,3.37 0.56,0.85 1.78,2.02 2.38,2.56 l 18.6,9.5 c -0.12,-1.27 -0.21,-2.38 -0.27,-3.34 -0.05,-0.95 -0.11,-1.82 -0.17,-2.64 -1.23628,-7.27984 -0.54474,-12.90356 2.64,-19.99 0.33,-0.71 1.04,-1.17 1.82,-1.17 h 17.71 c 0.84,0 1.59,0.52 1.88,1.31 0.02,0.06 0.58,1.59 0.88,2.64 0.62,2.19 0.79,3.61 1.03,5.57 l 0.07,0.57 c 0.64,5.24 0.42,8.29 0.04,13.35 l -0.03,0.38 c -0.38,5.06 -1.84,12.62 -1.91,12.94 -0.17,0.85 -0.85,1.48 -1.68,1.6 l 97.94,50 c 0.11,0.06 0.22,0.12 0.32,0.2 0.25,0.19 2.44,1.92 3.67,3.46 2.32,2.91 2.95,5.24 3.72,8.73 0.7,3.17 0.47,8.03 0.46,8.24 v 3.45 c 0,0.39 -0.11,0.77 -0.33,1.1 -0.46,0.7 -1.16,1.1 -1.92,1.1 -0.76,0 -1.46,-0.4 -1.92,-1.1 -0.19,-0.29 -0.31,-0.63 -0.33,-0.98 l -0.14,-2.35 -104.32,-30.16 H 195.7 v 86.94 c -0.02,0.19 -1.69,19.43 -3.56,32 -0.44,2.93 -1.03,6.5 -1.75,10.61 0.29,0.49 0.7,1.12 1.05,1.52 0.43,0.47 1.38,1.24 1.93,1.65 l 41.6,25.49 c 0.08,0.05 0.15,0.1 0.22,0.16 2.11,1.73 2.94,3.08 3.41,5.55 0.02,0.12 0.04,0.25 0.04,0.37 v 10.21 c -0.004,1.10297 -0.89703,1.99616 -2,2 -0.14,0 -0.29,-0.02 -0.43,-0.05 l -52.27,-11.64 c -0.56,2.95 -1.1,5.46 -1.62,7.48 -1.12,4.36 -3.27,11.26 -3.36,11.56 -0.26,0.84 -1.03,1.41 -1.91,1.41 h -4.92 z"
       fill="#ffffff"
       stroke="#000000"
       id="path1"
       sodipodi:nodetypes="ccccccsscccccccccccsccscccccccccsscccccccccccccccscscccccccccccccsscccccccccccccscscccccccccccccsccccccscc" />
  </g>
  <defs
     id="defs2">
    <clipPath
       id="a">
      <path
         fill="#fff"
         transform="translate(.91)"
         d="M0 0h347.24v383H0z"
         id="path2" />
    </clipPath>
  </defs>
</svg>
