<svg width="457" height="586" viewBox="0 0 457 586" fill="none" xmlns="http://www.w3.org/2000/svg">
<g clip-path="url(#clip0_59_78)">
<path d="M153.95 575.61C153.59 567.01 153.49 560.72 153.46 557.82C153.45 556.74 154.12 555.79 155.13 555.42L219.52 531.83C220.73 531.39 222.02 532.22 222.11 533.5C222.39 537.48 223.1 545.27 224.72 551.01V574.85C224.72 574.85 224.06 578.87 228.2 578.87C232.34 578.87 231.68 574.85 231.68 574.85V551.01C233.29 545.27 234.01 537.47 234.29 533.5C234.38 532.22 235.67 531.39 236.88 531.83L301.27 555.42C302.28 555.79 302.95 556.74 302.94 557.82C302.91 560.72 302.81 567.02 302.45 575.61C307.41 588.66 311.99 575.61 311.99 575.61C311.99 575.61 311.49 539.97 311.99 528.93C307.71 520.8 304.53 526.53 303.68 528.4C303.56 528.67 303.23 528.75 302.99 528.57C298.03 524.74 254.65 491.32 244.85 484.46C243.88 483.78 243.46 482.57 243.8 481.44C247.4 469.26 266.56 402.71 266.56 367.69V301.93C266.56 300.83 267.46 299.93 268.56 299.93H320.08C320.08 299.93 319.33 300.12 323.84 302.38C328.55 331.55 333.63 305.58 333.63 305.58C333.63 305.58 345.11 309.72 352.26 311.6C353.84 335.79 359.04 314.8 359.04 314.8C359.04 314.8 367.32 318.56 372.22 320.64C376.06 341.44 380.31 322.9 380.31 322.9C380.31 322.9 393.67 327.98 398.57 329.68C401.16 350.48 407.6 332.69 407.6 332.69L450.36 351.2C451.32 351.62 452.39 350.91 452.39 349.86V322.6C452.39 320.69 451.39 318.91 449.74 317.93L314.05 236.7V234.44H316.68V225.6C316.68 224.78 317.29 224.13 318.09 223.97C321.18 223.36 320.44 220.71 320.44 220.71L321.22 210.58C321.63 205.32 321.62 200.03 321.21 194.77L320.44 185.07C320.44 181.26 317.35 178.18 313.55 178.18H297.79C293.98 178.18 290.9 181.27 290.9 185.07L290.68 187.28C289.75 196.81 289.71 206.4 290.56 215.94L290.9 219.77C290.9 222.03 293.03 222.15 293.03 222.15V226.67L269.09 211.76C267.44 210.73 266.43 208.92 266.43 206.98V132.63C266.43 116.38 264.29 100.21 260.06 84.52C256.64 71.84 248.46 46.39 248.01 44.67C238.9 1.75004 228.2 4.30004 228.2 4.30004C228.2 4.30004 217.5 1.75004 208.38 44.64C207.93 46.36 199.75 71.81 196.33 84.49C192.1 100.18 189.96 116.35 189.96 132.6V206.95C189.96 208.9 188.96 210.71 187.3 211.73L163.36 226.64V222.12C163.36 222.12 165.49 221.99 165.49 219.74L165.83 215.91C166.68 206.37 166.64 196.78 165.71 187.25L165.49 185.04C165.49 181.23 162.4 178.15 158.6 178.15H142.84C139.03 178.15 135.95 181.24 135.95 185.04L135.18 194.74C134.76 200 134.76 205.29 135.17 210.55L135.95 220.68C135.95 220.68 135.21 223.33 138.3 223.94C139.1 224.1 139.71 224.76 139.71 225.57V234.41H142.35V236.67L6.65 317.92C5.01 318.9 4 320.68 4 322.59V349.85C4 350.9 5.07 351.6 6.03 351.19L48.79 332.68C48.79 332.68 55.24 350.47 57.82 329.67C62.71 327.98 76.08 322.89 76.08 322.89C76.08 322.89 80.33 341.43 84.17 320.63C89.06 318.56 97.35 314.79 97.35 314.79C97.35 314.79 102.54 335.78 104.13 311.59C111.28 309.71 122.76 305.57 122.76 305.57C122.76 305.57 127.84 331.54 132.55 302.37C137.07 300.11 136.31 299.92 136.31 299.92H187.83C188.93 299.92 189.83 300.82 189.83 301.92V367.68C189.83 402.7 209 469.26 212.59 481.43C212.93 482.57 212.51 483.77 211.54 484.45C201.75 491.3 158.37 524.73 153.4 528.56C153.17 528.74 152.83 528.65 152.71 528.39C151.86 526.52 148.68 520.79 144.4 528.92C144.9 539.96 144.4 575.6 144.4 575.6C144.4 575.6 148.98 588.65 153.94 575.6L153.95 575.61Z" fill="white" stroke="black"/>
</g>
<defs>
<clipPath id="clip0_59_78">
<rect width="456.4" height="585.14" fill="white" stroke="black" transform="translate(0 0.27002)"/>
</clipPath>
</defs>
</svg>
